<svg id="color" enable-background="new 0 0 24 24" height="512" viewBox="0 0 24 24" width="512" xmlns="http://www.w3.org/2000/svg"><path d="m16 22h-2v-2h-4v2h-2c-.552 0-1 .447-1 1s.448 1 1 1h8c.553 0 1-.447 1-1s-.447-1-1-1z" fill="#90a4ae"/><path d="m22.25 4h-20.5c-.965 0-1.75.785-1.75 1.75v12.5c0 .965.785 1.75 1.75 1.75h20.5c.965 0 1.75-.785 1.75-1.75v-12.5c0-.965-.785-1.75-1.75-1.75z" fill="#607d8b"/><path d="m22 18h-20v-12h20z" fill="#fff"/><path d="m13.601 3.3-.208-.029c-.398-.115-.628-.53-.513-.929.397-1.379 1.68-2.342 3.12-2.342.414 0 .75.336.75.75s-.336.75-.75.75c-.775 0-1.466.518-1.679 1.258-.095.328-.395.542-.72.542z" fill="#607d8b"/><path d="m10.399 3.3c-.326 0-.625-.214-.72-.542-.213-.74-.904-1.258-1.679-1.258-.414 0-.75-.336-.75-.75s.336-.75.75-.75c1.44 0 2.723.963 3.121 2.342.115.398-.115.814-.513.929z" fill="#607d8b"/><g fill="#90a4ae"><path d="m14.75 7.75c-.336 0-.642-.228-.727-.568-.101-.401.144-.809.545-.909l1.666-.416.846-1.691c.186-.371.637-.521 1.006-.336.371.186.521.636.335 1.006l-1 2c-.098.196-.276.34-.489.393l-2 .5z"/><path d="m17.75 12.75c-.275 0-.54-.151-.671-.415l-.886-1.771-1.771-.858c-.373-.181-.528-.629-.348-1.002s.629-.527 1.002-.348l2 .97c.149.072.27.191.344.34l1 2c.185.37.035.82-.335 1.006-.107.053-.222.078-.335.078z"/><path d="m9.25 7.75-.182-.022-2-.5c-.213-.053-.391-.197-.489-.393l-1-2c-.185-.37-.035-.82.335-1.006.372-.185.821-.035 1.006.336l.846 1.691 1.666.416c.402.101.646.508.545.909-.084.341-.391.569-.727.569z"/><path d="m6.25 12.75c-.113 0-.227-.025-.335-.079-.371-.186-.52-.636-.335-1.006l1-2c.074-.148.195-.268.344-.34l2-.97c.374-.18.822-.025 1.002.348.181.373.025.821-.348 1.002l-1.771.858-.886 1.771c-.131.265-.397.416-.671.416z"/></g><path d="m14 4.5h-4c-.414 0-.75-.336-.75-.75 0-1.517 1.233-2.75 2.75-2.75s2.75 1.233 2.75 2.75c0 .414-.336.75-.75.75z" fill="#455a64"/><path d="m12 13.75c-1.93 0-3.5-1.57-3.5-3.5v-5.75c0-.414.336-.75.75-.75h5.5c.414 0 .75.336.75.75v5.75c0 1.93-1.57 3.5-3.5 3.5z" fill="#f44336"/><path d="m12 11.558c.414 0 .75-.336.75-.75v-7.058h-1.5v7.058c0 .414.336.75.75.75z" fill="#fafafa"/><path d="m12 20h-2v2h-2c-.552 0-1 .447-1 1s.448 1 1 1h4z" fill="#7d8f97"/><path d="m5.691 4h-3.941c-.965 0-1.75.785-1.75 1.75v12.5c0 .965.785 1.75 1.75 1.75h10.25v-2h-10v-12h4.162l-.583-1.165c-.141-.283-.087-.612.112-.835zm3 0h-1.882c.044.049.081.104.112.165l.846 1.691.574.144h.159v-1.5c0-.192.072-.367.191-.5z" fill="#546d79"/><path d="m6.162 6h-4.162v12h10v-4.25c-1.93 0-3.5-1.57-3.5-3.5v-.023l-.693.336-.886 1.771c-.131.265-.397.416-.671.416-.113 0-.227-.025-.335-.079-.371-.186-.52-.636-.335-1.006l1-2c.074-.148.195-.268.344-.34l1.576-.765v-.974l-1.432-.358c-.213-.053-.391-.197-.489-.393zm2.338 0h-.159l.159.04z" fill="#dedede"/><path d="m8 0c-.414 0-.75.336-.75.75s.336.75.75.75c.67 0 1.277.387 1.567.969.245-.465.62-.851 1.076-1.11-.599-.832-1.578-1.359-2.643-1.359z" fill="#546d79"/><path d="m6.25 3.75c-.113 0-.227.025-.335.079-.088.044-.163.102-.224.171-.199.223-.253.552-.112.835l.583 1.165.417.835c.098.196.276.34.489.393l1.432.358v-1.546l-.159-.04-.574-.144-.846-1.691c-.031-.061-.068-.116-.112-.165-.143-.161-.348-.25-.559-.25z" fill="#7d8f97"/><path d="m8.5 8.56-1.577.765c-.149.072-.27.191-.344.34l-1 2c-.185.37-.035.82.335 1.006.108.054.222.079.335.079.275 0 .54-.151.671-.415l.886-1.771.694-.337z" fill="#7d8f97"/><path d="m12 1c-.493 0-.957.13-1.357.359-.456.26-.83.646-1.076 1.11-.202.383-.317.819-.317 1.281h2 .75z" fill="#3c4e57"/><path d="m11.25 3.75h-2c-.222 0-.422.097-.559.25-.119.133-.191.308-.191.5v1.5.04 1.546.974 1.667.023c0 1.93 1.57 3.5 3.5 3.5v-2.192c-.414 0-.75-.336-.75-.75z" fill="#d43a2f"/><path d="m12 3.75h-.75v7.058c0 .414.336.75.75.75z" fill="#dadada"/></svg>