<?xml version="1.0" encoding="iso-8859-1"?>
<!-- Generator: Adobe Illustrator 19.0.0, SVG Export Plug-In . SVG Version: 6.00 Build 0)  -->
<svg version="1.1" id="Capa_1" xmlns="http://www.w3.org/2000/svg" xmlns:xlink="http://www.w3.org/1999/xlink" x="0px" y="0px"
	 viewBox="0 0 512 512" style="enable-background:new 0 0 512 512;" xml:space="preserve">
<path style="fill:#C6E9F9;" d="M4.59,34.853l11.628,56.049L0,134.334l15.773,42.234L0,218.805l15.773,42.234L0,303.272
	l15.773,42.236L0,387.742l16.217,43.427L4.59,487.212h380.14V34.853H4.59z"/>
<rect x="192" y="34.853" style="fill:#96D7F5;" width="192.73" height="452.36"/>
<polygon style="fill:#00C47A;" points="123.599,169.558 94.299,140.258 115.511,119.045 123.599,127.132 141.033,109.698 
	162.246,130.911 "/>
<rect x="192" y="124" style="fill:#0999DB;" width="112.16" height="30"/>
<polygon style="fill:#00C47A;" points="123.599,254.029 94.299,224.73 115.511,203.516 123.599,211.604 141.033,194.17 
	162.246,215.383 "/>
<rect x="192" y="208.47" style="fill:#0999DB;" width="112.16" height="30"/>
<polygon style="fill:#00C47A;" points="123.599,338.502 94.299,309.201 115.511,287.988 123.599,296.075 141.033,278.642 
	162.246,299.855 "/>
<rect x="192" y="292.94" style="fill:#0999DB;" width="112.16" height="30"/>
<polygon style="fill:#00C47A;" points="123.599,422.974 94.299,393.673 115.511,372.46 123.599,380.547 141.033,363.113 
	162.246,384.326 "/>
<rect x="192" y="377.41" style="fill:#0999DB;" width="112.16" height="30"/>
<path style="fill:#FFD699;" d="M413.096,380.606v63.685l49.452,54.744L512,444.291v-63.685H413.096z"/>
<polygon style="fill:#FFC266;" points="462.548,380.606 462.548,499.035 512,444.291 512,380.606 "/>
<polygon style="fill:#054D6E;" points="427.568,460.312 462.548,499.035 497.528,460.312 "/>
<rect x="413.1" y="71.978" style="fill:#FF9900;" width="98.9" height="335"/>
<rect x="462.55" y="71.978" style="fill:#FF7700;" width="49.45" height="335"/>
<rect x="413.1" y="71.978" style="fill:#4BBAED;" width="98.9" height="47"/>
<rect x="462.55" y="71.978" style="fill:#0999DB;" width="49.45" height="47"/>
<path style="fill:#FFD699;" d="M463.42,12.965h-1.744c-26.787,0-48.58,21.793-48.58,48.58v14.766H512V61.546
	C512,34.758,490.207,12.965,463.42,12.965z"/>
<path style="fill:#FFC266;" d="M463.42,12.965h-0.872v63.346H512V61.546C512,34.758,490.207,12.965,463.42,12.965z"/>
<g>
</g>
<g>
</g>
<g>
</g>
<g>
</g>
<g>
</g>
<g>
</g>
<g>
</g>
<g>
</g>
<g>
</g>
<g>
</g>
<g>
</g>
<g>
</g>
<g>
</g>
<g>
</g>
<g>
</g>
</svg>
