<?xml version="1.0" standalone="no"?>
<!DOCTYPE svg PUBLIC "-//W3C//DTD SVG 20010904//EN"
 "http://www.w3.org/TR/2001/REC-SVG-20010904/DTD/svg10.dtd">
<svg version="1.0" xmlns="http://www.w3.org/2000/svg"
 width="600.000000pt" height="600.000000pt" viewBox="0 0 600.000000 600.000000"
 preserveAspectRatio="xMidYMid meet">

<g transform="translate(0.000000,600.000000) scale(0.100000,-0.100000)"
fill="#000000" stroke="none">
<path d="M1713 5093 c-22 -38 -304 -524 -627 -1080 l-587 -1013 625 -1077 625
-1078 1253 -3 1253 -2 628 1081 627 1082 -624 1076 -624 1076 -1255 3 -1255 2
-39 -67z m1422 -1318 c33 -8 92 -31 130 -49 67 -33 155 -99 155 -115 0 -9
-119 -161 -126 -161 -2 0 -28 16 -57 35 -143 95 -368 113 -458 38 -81 -68 -79
-174 4 -237 18 -14 87 -48 153 -75 326 -135 374 -161 444 -237 69 -75 85 -121
85 -249 0 -101 -2 -115 -29 -170 -107 -217 -417 -319 -716 -235 -91 26 -230
97 -289 148 l-44 38 73 84 c40 47 74 87 76 89 2 2 25 -12 51 -32 117 -85 225
-122 358 -122 88 0 107 3 157 27 71 33 98 72 98 143 0 58 -22 101 -72 138 -18
14 -129 67 -247 118 -238 103 -312 150 -365 231 -167 252 8 559 349 612 54 8
208 -3 270 -19z m-1058 -725 c128 -393 233 -718 233 -722 0 -5 -62 -8 -138 -8
l-138 0 -55 195 -54 195 -241 0 -241 0 -55 -192 -55 -193 -136 -3 -135 -3 72
223 c40 123 146 449 236 726 l164 502 155 -2 155 -3 233 -715z m1940 445 c46
-148 97 -323 115 -388 18 -68 35 -113 39 -105 4 7 17 49 29 93 12 44 62 214
113 378 l91 297 143 0 143 0 0 -213 c0 -118 3 -444 7 -725 l6 -512 -123 0
-122 0 5 418 c3 233 12 490 21 582 8 91 13 166 12 168 -2 1 -24 -71 -49 -160
-42 -146 -108 -346 -184 -556 l-26 -73 -75 3 -76 3 -77 225 c-42 124 -97 295
-120 380 -24 85 -45 147 -47 138 -2 -10 2 -73 8 -140 7 -68 14 -318 17 -555
l5 -433 -116 0 -116 0 0 725 0 726 147 -3 147 -3 83 -270z"/>
<path d="M1671 3530 c-6 -25 -38 -144 -71 -265 -32 -121 -68 -248 -78 -282
l-20 -63 179 0 c98 0 179 3 179 6 0 3 -38 141 -84 307 -46 166 -86 311 -88
322 -3 14 -8 7 -17 -25z"/>
</g>
</svg>
