<svg height="512pt" viewBox="0 -31 512 511" width="512pt" xmlns="http://www.w3.org/2000/svg"><path d="m256 448.714844h256v-320.644532l-276.015625-20.015624zm0 0" fill="#03232e"/><path d="m0 128.070312v320.644532h256v-340.660156zm0 0" fill="#07485e"/><path d="m256 .5-20.015625 63.785156 20.015625 63.785156h256v-127.570312zm0 0" fill="#b4d2d7"/><path d="m0 .5h256v127.570312h-256zm0 0" fill="#e1ebf0"/><path d="m47.839844 49.285156h31.890625v30h-31.890625zm0 0" fill="#ff4a4a"/><path d="m111.625 49.285156h31.894531v30h-31.894531zm0 0" fill="#ffd422"/><path d="m175.410156 49.285156h31.894532v30h-31.894532zm0 0" fill="#00cc76"/><path d="m184.121094 383.054688-74.484375-94.660157 74.484375-94.664062 23.578125 18.550781-59.886719 76.113281 59.886719 76.105469zm0 0" fill="#fff5f5"/><path d="m327.878906 383.054688-23.578125-18.554688 59.886719-76.105469-59.886719-76.113281 23.578125-18.550781 74.484375 94.664062zm0 0" fill="#efe2dd"/><path d="m241 192.734375h30v191.316406h-30zm0 0" fill="#fff5f5"/></svg>