<svg height="512pt" viewBox="0 0 512 512.00002" width="512pt" xmlns="http://www.w3.org/2000/svg"><path d="m90.878906 0h30v75.855469h-30zm0 0" fill="#ffd422"/><path d="m150.929688 0h30v75.855469h-30zm0 0" fill="#ffd422"/><path d="m210.976562 0h30v75.855469h-30zm0 0" fill="#ffd422"/><path d="m271.023438 0h30v75.855469h-30zm0 0" fill="#ff9f22"/><path d="m331.070312 0h30v75.855469h-30zm0 0" fill="#ff9f22"/><path d="m391.121094 0h30v75.855469h-30zm0 0" fill="#ff9f22"/><path d="m90.878906 436.144531h30v75.855469h-30zm0 0" fill="#ffd422"/><path d="m150.929688 436.144531h30v75.855469h-30zm0 0" fill="#ffd422"/><path d="m210.976562 436.144531h30v75.855469h-30zm0 0" fill="#ffd422"/><g fill="#ff9f22"><path d="m271.023438 436.144531h30v75.855469h-30zm0 0"/><path d="m331.070312 436.144531h30v75.855469h-30zm0 0"/><path d="m391.121094 436.144531h30v75.855469h-30zm0 0"/><path d="m436.144531 90.878906h75.855469v30h-75.855469zm0 0"/><path d="m436.144531 150.929688h75.855469v30h-75.855469zm0 0"/><path d="m436.144531 210.976562h75.855469v30h-75.855469zm0 0"/><path d="m436.144531 271.023438h75.855469v30h-75.855469zm0 0"/><path d="m436.144531 331.070312h75.855469v30h-75.855469zm0 0"/><path d="m436.144531 391.121094h75.855469v30h-75.855469zm0 0"/></g><path d="m0 90.878906h75.855469v30h-75.855469zm0 0" fill="#ffd422"/><path d="m0 150.929688h75.855469v30h-75.855469zm0 0" fill="#ffd422"/><path d="m0 210.976562h75.855469v30h-75.855469zm0 0" fill="#ffd422"/><path d="m0 271.023438h75.855469v30h-75.855469zm0 0" fill="#ffd422"/><path d="m0 331.070312h75.855469v30h-75.855469zm0 0" fill="#ffd422"/><path d="m0 391.121094h75.855469v30h-75.855469zm0 0" fill="#ffd422"/><path d="m457 55h-201l-20.015625 201 20.015625 201h201zm0 0" fill="#00884f"/><path d="m55 55h201v402h-201zm0 0" fill="#00cc76"/><path d="m335.644531 176.355469h-79.644531l-20.015625 78.785156 20.015625 80.503906h79.644531zm0 0" fill="#b4d2d7"/><path d="m176.355469 176.355469h79.644531v159.289062h-79.644531zm0 0" fill="#e1ebf0"/></svg>