<?xml version="1.0" encoding="iso-8859-1"?>
<!-- Generator: Adobe Illustrator 19.0.0, SVG Export Plug-In . SVG Version: 6.00 Build 0)  -->
<svg xmlns="http://www.w3.org/2000/svg" xmlns:xlink="http://www.w3.org/1999/xlink" version="1.1" id="Layer_1" x="0px" y="0px" viewBox="0 0 512 512" style="enable-background:new 0 0 512 512;" xml:space="preserve" width="512" height="512">
<g>
	<rect x="451" y="200.688" style="fill:#FDBF00;" width="30" height="142.207"/>
	<path style="fill:#FDBF00;" d="M466,454.105l-47-48.252l47-96.504l46,96.504L466,454.105z"/>
	<polygon style="fill:#0095FF;" points="512,192.895 256,327.895 0,192.895 256,57.895  "/>
	<polygon style="fill:#006EFF;" points="512,192.895 256,327.895 256,57.895  "/>
	<path style="fill:#4BB9EC;" d="M382.599,207.594C343.001,188.094,299.5,178.195,256,178.195s-87.001,9.899-126.599,29.399   l-8.401,4.2v146.1h270v-146.1L382.599,207.594z"/>
	<path style="fill:#0095FF;" d="M391,211.795v146.1H256v-179.7c43.5,0,87.001,9.899,126.599,29.399L391,211.795z"/>
</g>















</svg>
