<svg id="Capa_1" enable-background="new 0 0 512 512" height="512" viewBox="0 0 512 512" width="512" xmlns="http://www.w3.org/2000/svg"><g><g><g><path d="m31 137h450v60h-450z" fill="#384949"/></g></g><path d="m256 137h225v60h-225z" fill="#293939"/><g><g><path d="m31 317h450v60h-450z" fill="#384949"/></g></g><path d="m256 317h225v60h-225z" fill="#293939"/><g><path d="m0 0v152h512v-152z" fill="#4a696f"/></g><path d="m256 0h256v152h-256z" fill="#384949"/><g><g><g><path d="m61 62h30v30h-30z" fill="#9bfcff"/></g></g></g><g><g><path d="m121 62h30v30h-30z" fill="#9bfcff"/></g></g><g><g><g><path d="m181 62h30v30h-30z" fill="#9bfcff"/></g></g></g><g><g><path d="m301 62h150v30h-150z" fill="#293939"/></g></g><g><path d="m0 182v150h512v-150z" fill="#4a696f"/></g><path d="m256 182h256v150h-256z" fill="#384949"/><g><g><g><path d="m61 242h30v30h-30z" fill="#9bfcff"/></g></g></g><g><g><path d="m121 242h30v30h-30z" fill="#9bfcff"/></g></g><g><g><g><path d="m181 242h30v30h-30z" fill="#9bfcff"/></g></g></g><g><g><path d="m301 242h150v30h-150z" fill="#293939"/></g></g><g><path d="m0 362v150h512v-150z" fill="#4a696f"/></g><path d="m256 362h256v150h-256z" fill="#384949"/><g><g><g><path d="m61 422h30v30h-30z" fill="#9bfcff"/></g></g></g><g><g><g><path d="m121 422h30v30h-30z" fill="#9bfcff"/></g></g></g><g><g><g><path d="m181 422h30v30h-30z" fill="#9bfcff"/></g></g></g><g><path d="m301 422h150v30h-150z" fill="#293939"/></g></g></svg>